<svg width="512" height="512" viewBox="0 0 512 512" fill="none" xmlns="http://www.w3.org/2000/svg">
<rect width="512" height="512" rx="76.8" fill="url(#paint0_linear_231_2)"/>
<path d="M393.612 108.5L256.5 18L119.388 108.5L118.5 261.155L256.5 494L394.5 261.155L393.612 108.5Z" fill="url(#paint1_linear_231_2)"/>
<path d="M393.612 108.5L256.5 18L119.388 108.5L118.5 261.155L256.5 494L394.5 261.155L393.612 108.5Z" fill="url(#paint2_radial_231_2)" fill-opacity="0.25"/>
<path d="M256.5 494V330.11L118.5 261.155L256.5 494Z" fill="#FFD600"/>
<path d="M256.5 494V330.11L394.5 261.155L256.5 494Z" fill="#FFB800"/>
<path d="M256.5 18V181.89L119.388 108.5L256.5 18Z" fill="#A76FFF"/>
<path d="M256.5 18V181.89L393.612 108.5L256.5 18Z" fill="#C49BFF"/>
<path d="M118.5 261.155L256.5 181.89V330.11L118.5 261.155Z" fill="#FFEA8A"/>
<path d="M394.5 261.155L256.5 181.89V330.11L394.5 261.155Z" fill="#FFD600"/>
<defs>
<linearGradient id="paint0_linear_231_2" x1="256" y1="0" x2="256" y2="512" gradientUnits="userSpaceOnUse">
<stop stop-color="#242424"/>
<stop offset="1" stop-color="#121212"/>
</linearGradient>
<linearGradient id="paint1_linear_231_2" x1="256.5" y1="18" x2="256.5" y2="494" gradientUnits="userSpaceOnUse">
<stop stop-color="#FFEA8A"/>
<stop offset="0.411458" stop-color="#DE85FF"/>
<stop offset="1" stop-color="#7F00FF"/>
</linearGradient>
<radialGradient id="paint2_radial_231_2" cx="0" cy="0" r="1" gradientUnits="userSpaceOnUse" gradientTransform="translate(256.5 256) rotate(90) scale(238 138.112)">
<stop stop-color="white"/>
<stop offset="1" stop-color="white" stop-opacity="0"/>
</radialGradient>
</defs>
</svg>